{"title":"Blitz 2011 DVDrip English Klam","uid":7132380,"size":1269425572,"categoryP":"video","categoryS":"movies","magnet":"?xt=urn:btih:8d94208074e07731b3682910b4b08b70c007fe90&amp;dn=Blitz+2011+DVDrip+English+Klam&amp;tr=udp%3A%2F%2Ftracker.openbittorrent.com%3A80&amp;tr=udp%3A%2F%2Fopen.demonii.com%3A1337&amp;tr=udp%3A%2F%2Ftracker.coppersurfer.tk%3A6969&amp;tr=udp%3A%2F%2Fexodus.desync.com%3A6969","seeders":1,"leechers":0,"uploader":"Klambake","files":-1,"time":1332751866,"description":"With: Jason Statham, Paddy Considine en Aidan Gillen\n\nDetective Sergeant Brant (Jason Statham) staat voor hete vuren nadat hij zich heeft misdragen tegenover de politie psychiater. Inspecteur Roberts' vrouw is omgekomen bij een gruwelijk auto-ongeluk en detective Falls probeert haar draai nog te vinden als enige zwarte vrouwelijke detective. Maar wanneer een seriemoordenaar genaamd de &quot;blitz&quot; het op agenten gemunt heeft maakt dit het er voor de drie niet gemakkelijker op.\n\nA tough cop is dispatched to take down a serial killer who has been targeting police officers. \n\n------------------------ Dutch Friends ------------------------\n---------------------------------------------------------------\n- Bezoek ook eens mijn vrienden op: &lt;a href=&quot; http://www.Film-Test.nl&quot; rel=&quot;nofollow&quot; target=&quot;_NEW&quot;&gt; http://www.Film-Test.nl&lt;/a&gt; --\n----- voor mijn Nederlandse Sync. ondertitels ---- en meer ----\n------- http://www.Film-Test.nl ---- voor Films en meer -------\n---------------------------------------------------------------\n\nGeneral:\n\nComplete name                    : BlitzBlitz.avi\nFormat                           : AVI\nFormat/Info                      : Audio Video Interleave\nFile size                        : 1.18 GiB\nDuration                         : 1h 33mn\nOverall bit rate                 : 1 810 Kbps\n\nVideo:\n\nFormat                           : MPEG-4 Visual\nFormat profile                   : Simple@L3\nFormat settings, BVOP            : No\nFormat settings, QPel            : No\nFormat settings, GMC             : No warppoints\nFormat settings, Matrix          : Default (H.263)\nCodec ID                         : XVID\nCodec ID/Hint                    : XviD\nDuration                         : 1h 33mn\nBit rate                         : 1 351 Kbps\nWidth                            : 720 pixels\nHeight                           : 304 pixels\nDisplay aspect ratio             : 2.35:1\nFrame rate                       : 25.000 fps\nColor space                      : YUV\nChroma subsampling               : 4:2:0\nBit depth                        : 8 bits\nScan type                        : Progressive\nCompression mode                 : Lossy\nBits/(Pixel*Frame)               : 0.247\nStream size                      : 904 MiB (75%)\nWriting library                  : XviD 1.1.2 (UTC 2006-11-01)\n\nAudio:\n\nFormat                           : AC-3\nFormat/Info                      : Audio Coding 3\nMode extension                   : CM (complete main)\nCodec ID                         : 2000\nDuration                         : 1h 33mn\nBit rate mode                    : Constant\nBit rate                         : 448 Kbps\nChannel(s)                       : 6 channels\nChannel positions                : Front: L C R, Side: L R, LFE\nSampling rate                    : 48.0 KHz\nBit depth                        : 16 bits\nCompression mode                 : Lossy\nStream size                      : 300 MiB (25%)\nAlignment                        : Aligned on interleaves\nInterleave, duration             : 32 ms (0.80 video frame)\nInterleave, preload duration     : 608 ms\n\n","torrent":{"xt":"urn:btih:8d94208074e07731b3682910b4b08b70c007fe90","amp;dn":"Blitz+2011+DVDrip+English+Klam","amp;tr":["udp%3A%2F%2Ftracker.openbittorrent.com%3A80","udp%3A%2F%2Fopen.demonii.com%3A1337","udp%3A%2F%2Ftracker.coppersurfer.tk%3A6969","udp%3A%2F%2Fexodus.desync.com%3A6969"],"infoHash":"8d94208074e07731b3682910b4b08b70c007fe90","infoHashBuffer":{"type":"Buffer","data":[141,148,32,128,116,224,119,49,179,104,41,16,180,176,139,112,192,7,254,144]},"announce":[],"urlList":[]}}